<svg width="400mm" height="120mm" version="1.1" viewBox="0 0 400 120" xmlns="http://www.w3.org/2000/svg">
 <g fill="#e57e25">
  <g transform="matrix(1.8757,0,0,1.8757,-450.17,-4.0726e-6)">
   <g transform="matrix(.4505 0 0 .4505 168.49 -96.574)">
    <path d="m240.14 271.44c-0.53 0-1-0.12-1.42-0.35-2.12-1.17-2.47-5.22-0.97-11.38 1.48-6.08 4.56-13.54 8.69-21.01 7.72-13.98 16.93-24.12 21.89-24.12 0.53 0 1 0.12 1.42 0.35 4.37 2.42 0.98 16.64-7.71 32.39-7.74 13.98-16.94 24.12-21.9 24.12z"/>
    <path d="m268.32 214.79c0.49 0 0.93 0.1 1.32 0.32 4.2 2.32 0.71 16.69-7.8 32.1-7.72 13.98-16.93 24.01-21.7 24.01-0.49 0-0.93-0.1-1.32-0.32-4.2-2.32-0.71-16.69 7.8-32.1 7.72-13.98 16.92-24.01 21.7-24.01m0-0.42c-5.04 0-14.32 10.19-22.08 24.23-4.13 7.48-7.23 14.96-8.71 21.06-1.52 6.27-1.14 10.39 1.08 11.62 0.45 0.25 0.96 0.37 1.52 0.37 5.04 0 14.32-10.19 22.08-24.23 7.68-13.9 12.63-29.92 7.63-32.68-0.45-0.25-0.96-0.37-1.52-0.37z"/>
   </g>
   <g transform="matrix(.4505 0 0 .4505 168.49 -96.574)">
    <path d="m263.21 283.85c-10.47 0-18.41-2.27-18.47-5.28-0.06-3.16 8.54-5.79 19.56-5.99 0.44-0.01 0.87-0.01 1.3-0.01 10.47 0 18.41 2.27 18.47 5.28 0.06 3.16-8.54 5.79-19.56 5.99-0.44 0.01-0.87 0.01-1.3 0.01z"/>
    <path d="m265.6 272.79c10.14 0 18.2 2.2 18.25 5.07 0.05 2.99-8.61 5.57-19.35 5.77-0.44 0.01-0.87 0.01-1.3 0.01-10.14 0-18.2-2.2-18.25-5.07-0.05-2.99 8.61-5.57 19.35-5.77 0.44-0.01 0.88-0.01 1.3-0.01m0-0.43c-0.43 0-0.87 0-1.31 0.01-5.23 0.1-10.15 0.76-13.84 1.86-2.73 0.81-5.97 2.23-5.93 4.35 0.05 2.73 6.48 5.49 18.68 5.49 0.43 0 0.87 0 1.31-0.01 5.23-0.1 10.15-0.76 13.84-1.86 2.73-0.81 5.97-2.23 5.93-4.35-0.05-2.73-6.48-5.49-18.68-5.49z"/>
   </g>
   <g transform="matrix(.4505 0 0 .4505 168.49 -96.574)">
    <path d="m188.93 290.74c-17.01 0-29.91-3.58-30-8.32-0.05-2.43 3.28-4.75 9.37-6.53 6-1.76 14.01-2.82 22.54-2.98 0.76-0.01 1.51-0.02 2.25-0.02 17.01 0 29.9 3.58 30 8.32 0.05 2.43-3.28 4.75-9.37 6.53-6.01 1.76-14.01 2.82-22.54 2.98-0.75 0.02-1.5 0.02-2.25 0.02z"/>
    <path d="m193.1 273.1c16.56 0 29.69 3.51 29.78 8.11 0.09 4.8-14.1 8.96-31.7 9.3-0.76 0.01-1.5 0.02-2.25 0.02-16.56 0-29.69-3.51-29.78-8.11-0.09-4.8 14.1-8.96 31.7-9.3 0.75-0.01 1.5-0.02 2.25-0.02m0-0.42c-0.75 0-1.5 0.01-2.26 0.02-8.55 0.16-16.57 1.22-22.59 2.99-6.19 1.82-9.57 4.21-9.52 6.74 0.11 5.54 15.64 8.53 30.21 8.53 0.74 0 1.5-0.01 2.26-0.02 15.87-0.3 32.23-4.02 32.12-9.73-0.12-5.54-15.66-8.53-30.22-8.53z"/>
   </g>
   <g transform="matrix(.4505 0 0 .4505 168.49 -96.574)">
    <path d="m208.88 324.24c-0.35 0-0.66-0.08-0.94-0.23-2.76-1.52-0.76-10.28 4.57-19.94 4.71-8.54 10.38-14.73 13.49-14.73 0.35 0 0.66 0.08 0.94 0.23 1.36 0.75 1.61 3.26 0.71 7.07-0.88 3.73-2.76 8.3-5.28 12.87-4.71 8.53-10.38 14.73-13.49 14.73z"/>
    <path d="m226.01 289.55c0.31 0 0.59 0.07 0.83 0.2 2.62 1.44 0.53 10.24-4.65 19.65-4.7 8.52-10.34 14.62-13.3 14.62-0.31 0-0.59-0.07-0.83-0.2-2.62-1.44-0.53-10.24 4.65-19.65 4.69-8.52 10.33-14.62 13.3-14.62m0-0.43c-3.18 0-8.93 6.24-13.68 14.85-2.53 4.58-4.41 9.17-5.3 12.92-0.66 2.77-1.05 6.29 0.81 7.31 0.31 0.17 0.66 0.25 1.04 0.25 3.18 0 8.93-6.24 13.68-14.85 2.53-4.58 4.41-9.17 5.3-12.92 0.66-2.77 1.05-6.29-0.81-7.31-0.31-0.16-0.66-0.25-1.04-0.25z"/>
   </g>
   <g transform="matrix(.4505 0 0 .4505 168.49 -96.574)">
    <path d="m229.25 356.17c-0.28 0-0.52-0.06-0.73-0.17-0.6-0.32-0.97-0.74-1.12-1.28-0.35-1.25 0.52-3.08 2.14-5.82 5.97-10.08 7.75-15.21 8.62-24.95 1.18-13.14-2.32-26.52-10.7-40.91-2.08-3.58-1.9-6.33-1.37-8.01 0.51-1.64 1.6-2.99 2.91-3.61 0.67-0.32 1.41-0.48 2.19-0.48 3.14 0 6.73 2.65 9.13 6.76 2.02 3.45 8.63 16.1 9.09 34 0.34 13.36-3.45 25.38-11.59 36.77-4.79 6.7-7.43 7.7-8.57 7.7z"/>
    <path d="m231.2 271.15c3.04 0 6.54 2.54 8.94 6.65 3.79 6.48 8.68 18.74 9.06 33.9 0.36 13.94-3.9 25.94-11.55 36.64-4.44 6.21-7.1 7.62-8.41 7.62-0.26 0-0.47-0.06-0.62-0.14-1.92-1.03-1.12-3.05 1.11-6.81 5.85-9.87 7.76-15.1 8.65-25.04 1.1-12.24-1.73-25.59-10.72-41.04-3.37-5.79-1.05-10.14 1.44-11.32 0.65-0.31 1.36-0.46 2.1-0.46m0-0.43c-0.81 0-1.58 0.17-2.28 0.5-1.36 0.64-2.49 2.04-3.02 3.74-0.53 1.72-0.73 4.54 1.39 8.18 8.35 14.35 11.84 27.69 10.67 40.79-0.87 9.7-2.64 14.81-8.59 24.86-1.69 2.86-2.54 4.66-2.17 5.99 0.17 0.6 0.57 1.06 1.22 1.41 0.24 0.13 0.51 0.19 0.83 0.19 1.45 0 4.15-1.35 8.76-7.8 8.17-11.42 11.97-23.49 11.63-36.9-0.46-17.96-7.1-30.64-9.12-34.1-2.45-4.16-6.11-6.86-9.32-6.86z"/>
   </g>
  </g>
  <path d="m126.97 57.153q-5.1784 0-9.0489-1.7193-3.8438-1.7495-5.9792-5.3691t-2.1621-9.2602h10.25q0.13346 3.1068 1.8952 4.7357 1.7617 1.5986 4.8848 1.5986 2.5892 0 3.9238-1.0557 1.3614-1.0859 1.3614-2.7449 0-1.5082-1.3346-2.5338-1.3346-1.0256-4.6446-1.8098l-4.004-0.96522q-5.2584-1.2669-8.3014-4.3133-3.0163-3.0766-3.0163-8.3553 0-4.2833 2.0553-7.4805 2.0553-3.2275 5.6589-5.0072 3.6302-1.8098 8.3548-1.8098 4.8314 0 8.3281 1.8399 3.5234 1.8098 5.4187 5.1278 1.9218 3.2879 1.9485 7.6917h-10.357q-0.13347-2.2019-1.4414-3.4085-1.2812-1.2367-3.8972-1.2367-2.5091 0-3.6569 0.96523-1.1478 0.96522-1.1478 2.4734 0 1.5986 1.2546 2.594t4.084 1.6891l3.2565 0.78425q6.5931 1.5685 9.5028 5.0976 2.9362 3.5292 2.9362 8.6569 0 6.6661-4.2975 10.256-4.2708 3.5592-11.824 3.5592zm21.368-0.54294v-44.944h28.668v9.8333h-17.884v7.6012h16.39v9.592h-16.39v8.0838h17.777v9.8333zm34.634 0v-44.944h28.668v9.8333h-17.884v7.6012h16.39v9.592h-16.39v8.0838h17.777v9.8333zm49.956 0h-15.322v-44.944h15.161q6.1393 0 10.597 2.7147 4.4577 2.6845 6.8867 7.7218 2.429 5.0373 2.429 12.065 0 6.9979-2.429 12.035-2.4023 5.0372-6.8334 7.7218-4.431 2.6845-10.491 2.6845zm-4.5378-10.376h4.1107q2.9629 0 5.0449-1.0557 2.1088-1.0557 3.2032-3.6799 1.0944-2.6544 1.0944-7.3297 0-4.7055-1.1211-7.3297-1.1211-2.6544-3.2832-3.7101-2.1355-1.0859-5.2585-1.0859h-3.7904zm29.857 10.376v-44.944h17.244q6.8066 0 10.33 3.0465 3.5502 3.0465 3.5502 8.1743 0 3.7403-2.1087 6.4248-2.1088 2.6544-5.5788 3.4085v0.48261q2.5625 0.09049 4.6446 1.4478 2.1087 1.3272 3.3366 3.7101 1.2546 2.3527 1.2546 5.5199 0 3.6799-1.6817 6.5756-1.6817 2.8655-4.8047 4.5246-3.1231 1.6288-7.4472 1.6288zm10.784-9.7126h5.0716q5.4453 0 5.4453-4.5848 0-2.3829-1.4147-3.6498-1.4147-1.2971-3.8705-1.2971h-5.2317zm0-17.073h4.431q2.1355 0 3.47-1.0859 1.3346-1.116 1.3346-3.1973 0-2.0512-1.3346-3.1672-1.3079-1.116-3.3099-1.116h-4.5911zm25.532 26.785 12.892-44.944h14.734l13.373 44.944h-12.225l-2.2956-8.6268h-12.225l-2.1888 8.6268zm16.55-17.736h7.5274q-1.0944-4.1022-2.082-8.4457-0.96091-4.3737-1.8418-8.7775-0.82747 4.4039-1.7083 8.7775-0.85417 4.3435-1.8952 8.4457zm29.376 17.736v-44.944h10.784v35.11h16.069v9.8333zm32.046 0v-44.944h10.784v35.11h16.069v9.8333z" stroke-opacity="0" stroke-width=".99998" aria-label="SEEDBALL"/>
  <path d="m109.89 108.84v-44.846h19.313q6.2205 0 10.38 1.9263 4.1591 1.8962 6.2205 5.2069 2.0614 3.2806 2.0614 7.4342t-2.0976 7.4643q-2.0614 3.2806-6.2205 5.2069-4.1591 1.8962-10.416 1.8962h-10.995v15.711zm8.2458-21.52h10.199q5.9312 0 8.5351-2.468 2.6401-2.4981 2.6401-6.2904t-2.6401-6.2302q-2.6039-2.468-8.6075-2.468h-10.126zm40.814 21.52v-44.846h8.2458v38.947h24.412v5.8992zm39.294 0 19.168-44.846h10.126l19.53 44.846h-8.9329l-4.9547-11.829h-21.193l-4.81 11.829zm16.093-17.547h16.419l-3.1102-7.4041q-1.085-2.6787-2.3508-6.2001-1.2658-3.5515-2.8571-8.307-1.5912 4.8157-2.8571 8.3973-1.2296 3.5515-2.2423 6.1099zm42.08 17.547v-44.846h9.5116l20.288 26.697q1.2658 1.6854 2.9656 4.2137 1.6998 2.4981 3.5081 5.7186-0.28933-3.2505-0.43399-6.2001-0.10852-2.9797-0.10852-4.906v-25.523h8.3542v44.846h-9.5478l-18.191-23.868q-1.3381-1.7758-2.5677-3.5215-1.1934-1.7456-2.6401-3.9127-1.4467-2.1971-3.3995-5.2069 0.25317 4.2137 0.434 7.5245 0.18083 3.3108 0.18083 5.0564v23.928zm57.558 0v-44.846h33.923v5.8992h-25.677v13.363h23.87v5.8691h-23.87v13.815h25.894v5.8992zm43.491-38.947v-5.8992h41.844v5.8992h-16.744v38.947h-8.2819v-38.947z" stroke-opacity="0" aria-label="PLANET"/>
 </g>
</svg>
